<svg xmlns="http://www.w3.org/2000/svg" viewBox="0 0 1536 500" width="1536" height="500" role="img" aria-label="La Caravana Club — Van life expeditions">
  <defs>
    <filter id="ink" x="-20%" y="-20%" width="140%" height="140%">
      <feTurbulence type="fractalNoise" baseFrequency="0.014" numOctaves="3" seed="7" result="noise"/>
      <feDisplacementMap in="SourceGraphic" in2="noise" scale="90" xChannelSelector="R" yChannelSelector="G"/>
    </filter>
    <filter id="grain" x="0" y="0" width="100%" height="100%">
      <feTurbulence type="fractalNoise" baseFrequency="0.9" numOctaves="2" seed="3"/>
      <feColorMatrix values="0 0 0 0 0.1  0 0 0 0 0.08  0 0 0 0 0.06  0 0 0 0.08 0"/>
      <feComposite in2="SourceGraphic" operator="in"/>
    </filter>
    <filter id="glow" x="-50%" y="-50%" width="200%" height="200%">
      <feGaussianBlur stdDeviation="3"/>
      <feMerge><feMergeNode/><feMergeNode in="SourceGraphic"/></feMerge>
    </filter>
    <linearGradient id="sky" x1="0" y1="0" x2="0" y2="1">
      <stop offset="0%" stop-color="#1A1410"/>
      <stop offset="55%" stop-color="#2D4A3E"/>
      <stop offset="100%" stop-color="#8B1A2A"/>
    </linearGradient>
    <linearGradient id="ground" x1="0" y1="0" x2="0" y2="1">
      <stop offset="0%" stop-color="#1A1410" stop-opacity="0"/>
      <stop offset="100%" stop-color="#1A1410" stop-opacity="0.95"/>
    </linearGradient>
    <radialGradient id="sun" cx="50%" cy="50%" r="50%">
      <stop offset="0%" stop-color="#F5EDD8" stop-opacity="0.95"/>
      <stop offset="55%" stop-color="#D4A843" stop-opacity="0.5"/>
      <stop offset="100%" stop-color="#D4A843" stop-opacity="0"/>
    </radialGradient>
    <mask id="reveal">
      <rect width="1536" height="500" fill="black"/>
      <circle cx="768" cy="250" r="0" fill="white" filter="url(#ink)">
        <animate attributeName="r" values="0;0;1200" keyTimes="0;0.08;1" dur="11s" fill="freeze" calcMode="spline" keySplines="0 0 1 1; 0.22 0.61 0.36 1"/>
      </circle>
    </mask>
    <symbol id="pine" viewBox="0 0 20 30">
      <path d="M10 0 L4 12 L7 12 L2 22 L6 22 L0 30 L20 30 L14 22 L18 22 L13 12 L16 12 Z" fill="currentColor"/>
    </symbol>
  </defs>

  <rect width="1536" height="500" fill="url(#sky)"/>

  <g mask="url(#reveal)">
    <!-- Stars -->
    <g fill="#F5EDD8" opacity="0.85">
      <circle cx="120" cy="60" r="1.2"><animate attributeName="opacity" values="0.2;1;0.2" dur="3.4s" repeatCount="indefinite"/></circle>
      <circle cx="280" cy="40" r="0.9"><animate attributeName="opacity" values="0.8;0.2;0.8" dur="2.8s" repeatCount="indefinite"/></circle>
      <circle cx="420" cy="90" r="1.4"><animate attributeName="opacity" values="0.3;1;0.3" dur="4.1s" repeatCount="indefinite"/></circle>
      <circle cx="610" cy="55" r="0.8"><animate attributeName="opacity" values="1;0.3;1" dur="3.2s" repeatCount="indefinite"/></circle>
      <circle cx="980" cy="40" r="1.1"><animate attributeName="opacity" values="0.5;1;0.5" dur="2.5s" repeatCount="indefinite"/></circle>
      <circle cx="1180" cy="80" r="0.9"><animate attributeName="opacity" values="0.2;0.9;0.2" dur="3.8s" repeatCount="indefinite"/></circle>
      <circle cx="1340" cy="55" r="1.3"><animate attributeName="opacity" values="0.4;1;0.4" dur="3s" repeatCount="indefinite"/></circle>
      <circle cx="1440" cy="100" r="0.7"><animate attributeName="opacity" values="0.7;0.2;0.7" dur="4.5s" repeatCount="indefinite"/></circle>
    </g>

    <!-- Sun / aura behind mountains -->
    <ellipse cx="900" cy="280" rx="320" ry="220" fill="url(#sun)"/>

    <!-- Mountain range back -->
    <path d="M0 360 L120 240 L240 320 L360 200 L480 290 L620 170 L760 280 L900 200 L1040 290 L1180 220 L1320 300 L1440 240 L1536 320 L1536 500 L0 500 Z"
          fill="#1A1410" opacity="0.55"/>
    <!-- Mountain range front -->
    <path d="M0 400 L100 340 L200 380 L320 300 L440 370 L580 320 L720 380 L860 310 L1000 380 L1140 330 L1280 390 L1420 340 L1536 380 L1536 500 L0 500 Z"
          fill="#1A1410" opacity="0.85"/>

    <!-- Pines along ridge -->
    <g color="#1A1410">
      <use href="#pine" x="180" y="370" width="14" height="22"/>
      <use href="#pine" x="280" y="358" width="11" height="18"/>
      <use href="#pine" x="510" y="350" width="16" height="26"/>
      <use href="#pine" x="640" y="365" width="12" height="20"/>
      <use href="#pine" x="930" y="356" width="14" height="22"/>
      <use href="#pine" x="1080" y="370" width="11" height="18"/>
      <use href="#pine" x="1310" y="360" width="15" height="24"/>
    </g>

    <!-- Road -->
    <path d="M0 480 Q380 440 768 460 T1536 440" stroke="#D4A843" stroke-width="2" fill="none" opacity="0.6" stroke-dasharray="14 10">
      <animate attributeName="stroke-dashoffset" from="0" to="-48" dur="2.4s" repeatCount="indefinite"/>
    </path>

    <!-- Van silhouette center -->
    <g transform="translate(700 405)">
      <rect x="0" y="0" width="120" height="44" rx="6" fill="#1A1410" stroke="#F5EDD8" stroke-width="1.2"/>
      <rect x="76" y="-22" width="36" height="22" rx="3" fill="#1A1410" stroke="#F5EDD8" stroke-width="1.2"/>
      <rect x="80" y="-18" width="28" height="14" rx="1" fill="#7ECFD4" opacity="0.55"/>
      <rect x="10" y="6" width="22" height="14" rx="1" fill="#7ECFD4" opacity="0.55"/>
      <rect x="38" y="6" width="22" height="14" rx="1" fill="#7ECFD4" opacity="0.55"/>
      <circle cx="20" cy="46" r="7" fill="#1A1410" stroke="#F5EDD8" stroke-width="1.2"/>
      <circle cx="100" cy="46" r="7" fill="#1A1410" stroke="#F5EDD8" stroke-width="1.2"/>
      <!-- Headlights -->
      <circle cx="118" cy="22" r="3" fill="#D4A843">
        <animate attributeName="opacity" values="1;0.4;1" dur="1.8s" repeatCount="indefinite"/>
      </circle>
      <path d="M120 18 L160 8 L160 36 L120 26 Z" fill="#D4A843" opacity="0.18">
        <animate attributeName="opacity" values="0.05;0.28;0.05" dur="1.8s" repeatCount="indefinite"/>
      </path>
    </g>

    <!-- Title -->
    <g text-anchor="middle" font-family="Georgia, 'Playfair Display', serif">
      <text x="768" y="200" font-size="84" fill="#F5EDD8" font-weight="700" letter-spacing="6">LA CARAVANA</text>
      <text x="768" y="270" font-size="84" fill="#D4A843" font-weight="700" letter-spacing="22">— CLUB —</text>
      <text x="768" y="310" font-size="14" fill="#F5EDD8" opacity="0.7" letter-spacing="8" font-family="'Courier New', monospace">VAN LIFE EXPEDITIONS · CÓRDOBA · PATAGONIA · 2026</text>
    </g>

    <!-- Ground vignette -->
    <rect y="320" width="1536" height="180" fill="url(#ground)"/>
  </g>

  <!-- Grain overlay -->
  <rect width="1536" height="500" filter="url(#grain)" opacity="0.6"/>

  <!-- Border frame -->
  <rect x="6" y="6" width="1524" height="488" fill="none" stroke="#D4A843" stroke-width="1" opacity="0.35"/>
</svg>
