<svg xmlns="http://www.w3.org/2000/svg" viewBox="0 0 1536 48" width="1536" height="48" preserveAspectRatio="none">
  <defs>
    <filter id="ink" x="-5%" y="-50%" width="110%" height="200%">
      <feTurbulence type="fractalNoise" baseFrequency="0.05" numOctaves="2" seed="9" result="n"/>
      <feDisplacementMap in="SourceGraphic" in2="n" scale="6" xChannelSelector="R" yChannelSelector="G"/>
    </filter>
  </defs>
  <!-- Back ridge faint -->
  <path d="M0 34 L60 22 L130 30 L200 18 L280 28 L360 16 L440 26 L520 14 L600 24 L680 12 L760 22 L840 14 L920 24 L1000 16 L1080 26 L1160 18 L1240 28 L1320 20 L1400 30 L1480 22 L1536 28 L1536 48 L0 48 Z"
        fill="#8B1A2A" opacity="0.28" filter="url(#ink)"/>
  <!-- Front ridge -->
  <path d="M0 40 L70 28 L140 38 L220 24 L300 36 L380 22 L460 34 L540 18 L620 32 L700 20 L770 34 L840 22 L920 36 L1000 24 L1080 38 L1160 26 L1240 38 L1320 28 L1400 38 L1480 30 L1536 38 L1536 48 L0 48 Z"
        fill="#1A1410" opacity="0.75" filter="url(#ink)"/>
  <!-- Top hairline -->
  <line x1="20" y1="44" x2="1516" y2="44" stroke="#D4A843" stroke-width="0.6" opacity="0.45" stroke-dasharray="2 6"/>
</svg>
